<svg width="96" height="96" viewBox="0 0 96 96" fill="none" xmlns="http://www.w3.org/2000/svg">
<rect x="26" y="26.0018" width="44" height="44" fill="#EE6823"/>
<path d="M44.5 37.3293L44.5 43.7111L34.4922 49.538C34.2187 49.7045 34 49.982 34 50.315L34 53.9221C34 54.5325 34.6016 54.9765 35.1484 54.81L44.5 52.0908L44.5 57.7512L41.3828 60.1929C41.1641 60.3594 41 60.5814 41 60.8589L41 63.0786C41 63.6891 41.5469 64.133 42.0938 63.9666L48 62.1907L53.9609 63.9666C54.5078 64.133 55 63.6891 55 63.0786L55 60.8589C55 60.5814 54.8906 60.3594 54.6719 60.1929L51.5 57.7512L51.5 52.0908L60.9063 54.81C61.4531 54.9765 62 54.5325 62 53.9221L62 50.315C62 49.982 61.8359 49.7045 61.5625 49.538L51.5 43.7111L51.5 37.3293C51.5 35.387 49.9688 32.0018 48 32.0018C46.0859 32.0018 44.5 35.387 44.5 37.3293Z" fill="white"/>
<rect x="2" y="2" width="14" height="14" fill="#7C828B" stroke="#252F3E" stroke-width="4"/>
<rect x="2" y="80" width="14" height="14" fill="#EE6823" stroke="#252F3E" stroke-width="4"/>
<rect x="80" y="2" width="14" height="14" fill="#EE6823" stroke="#252F3E" stroke-width="4"/>
<path fill-rule="evenodd" clip-rule="evenodd" d="M62 7.00122V11.0012H66V7.00122H62ZM70 7.00122V11.0012H74V7.00122H70Z" fill="#BDC2CA"/>
<path d="M18 7.00171H54V11.0017H18V7.00171Z" fill="#BDC2CA"/>
<path fill-rule="evenodd" clip-rule="evenodd" d="M53.4468 8.8324L48.7234 4.10902L51.5518 1.28059L59.1036 8.8324L51.5518 16.3842L48.7234 13.5558L53.4468 8.8324Z" fill="#7C828B"/>
<path fill-rule="evenodd" clip-rule="evenodd" d="M89.2794 62L85.2794 62L85.2794 66L89.2794 66L89.2794 62ZM89.2794 70L85.2794 70L85.2794 74L89.2794 74L89.2794 70Z" fill="#BDC2CA"/>
<path d="M89.2789 18L89.2789 54L85.2789 54L85.2789 18L89.2789 18Z" fill="#BDC2CA"/>
<path fill-rule="evenodd" clip-rule="evenodd" d="M87.4482 53.4468L92.1716 48.7234L95 51.5518L87.4482 59.1036L79.8964 51.5518L82.7248 48.7234L87.4482 53.4468Z" fill="#7C828B"/>
<path fill-rule="evenodd" clip-rule="evenodd" d="M34 85.7223V89.7223H30V85.7223H34ZM26 85.7223V89.7223H22V85.7223H26Z" fill="#BDC2CA"/>
<path d="M78 85.7228H42V89.7228H78V85.7228Z" fill="#BDC2CA"/>
<path fill-rule="evenodd" clip-rule="evenodd" d="M42.5532 87.5535L47.2766 82.8301L44.4482 80.0017L36.8964 87.5535L44.4482 95.1053L47.2766 92.2768L42.5532 87.5535Z" fill="#7C828B"/>
<path fill-rule="evenodd" clip-rule="evenodd" d="M10.2794 34.0018L6.27936 34.0018L6.27936 30.0018L10.2794 30.0018L10.2794 34.0018ZM10.2794 26.0018L6.27936 26.0018L6.27936 22.0018L10.2794 22.0018L10.2794 26.0018Z" fill="#BDC2CA"/>
<path d="M10.2789 78.0018L10.2789 42.0018L6.27887 42.0018L6.27887 78.0018L10.2789 78.0018Z" fill="#BDC2CA"/>
<path fill-rule="evenodd" clip-rule="evenodd" d="M8.44818 42.5551L13.1716 47.2785L16 44.45L8.44818 36.8982L0.896378 44.45L3.72481 47.2785L8.44818 42.5551Z" fill="#7C828B"/>
<rect x="80" y="80" width="14" height="14" fill="#EDF1F7" stroke="#252F3E" stroke-width="4"/>
</svg>
