<svg width="96" height="96" viewBox="0 0 96 96" fill="none" xmlns="http://www.w3.org/2000/svg">
<g clip-path="url(#clip0)">
<rect x="18" y="18.0018" width="60" height="60" fill="#EE6823"/>
<path d="M48 24.0018C34.7705 24.0018 24 34.7852 24 48.0018C24 61.2185 34.7707 72.0018 48 72.0018C61.2293 72.0018 72 61.2312 72 48.0018C72 34.7725 61.2293 24.0018 48 24.0018ZM35.7566 48.002C35.7566 45.556 35.9999 43.0969 36.4866 40.8942H46.7705V55.097H36.4866C35.9999 52.9069 35.7566 50.448 35.7566 48.002ZM49.2294 26.576C53.5198 27.306 57.1953 31.9677 58.8986 38.4608H49.2294V26.576ZM46.7832 26.576V38.4608H37.114C38.8174 31.955 42.493 27.306 46.7832 26.576ZM46.7832 57.5559V69.4407C42.4928 68.7107 38.8174 64.049 37.114 57.5559H46.7832ZM49.2294 69.4278V57.543H58.8986C57.0671 64.049 53.507 68.6978 49.2294 69.4278ZM49.2294 55.1097V40.894H59.5133C60.0001 43.0967 60.2434 45.5429 60.2434 48.0018C60.2434 50.4607 60.0001 52.9069 59.5133 55.1097H49.2294V55.1097ZM61.9594 40.8942H68.209C68.9391 43.0969 69.4385 45.5431 69.4385 48.002C69.4385 50.4609 68.9517 52.9071 68.209 55.1099H61.9594C62.3308 52.9071 62.5741 50.4609 62.5741 48.002C62.7023 45.5558 62.4588 43.1098 61.9594 40.8942ZM67.2231 38.4479H61.4728C60.3713 34.1576 58.5272 30.6101 56.3244 28.0359C61.1014 30.1235 65.0203 33.7992 67.2231 38.4479ZM39.6754 28.164C37.3444 30.7382 35.6285 34.2857 34.527 38.5761H28.7767C30.9795 33.7992 34.8984 30.1235 39.6754 28.164ZM27.6755 40.8942H33.9251C33.5537 43.0969 33.3104 45.5431 33.3104 48.002C33.3104 50.4609 33.5537 52.9071 33.9251 55.1099H27.6755C26.8175 52.9071 26.446 50.4609 26.446 48.002C26.446 45.5431 26.8173 43.1098 27.6755 40.8942ZM28.6488 57.5559H34.399C35.5005 61.8463 37.3318 65.3938 39.5474 67.968C34.8984 65.8803 30.9795 62.2047 28.6488 57.5559ZM56.3244 67.8398C58.6553 65.2656 60.3713 61.7181 61.4728 57.4277H67.2231C65.0203 62.2047 61.1014 65.8803 56.3244 67.8398Z" fill="white"/>
<path d="M90.1343 52.3445C92.5336 52.3445 94.4786 50.3995 94.4786 48.0001C94.4786 45.6008 92.5336 43.6558 90.1343 43.6558C87.7349 43.6558 85.7899 45.6008 85.7899 48.0001C85.7899 50.3995 87.7349 52.3445 90.1343 52.3445Z" fill="white"/>
<path fill-rule="evenodd" clip-rule="evenodd" d="M12.4167 2.00183V6.00183H16.25V2.00183H12.4167ZM20.0833 2.00183V6.00183H23.9167V2.00183H20.0833ZM27.75 2.00183V6.00183H31.5833V2.00183H27.75ZM35.4167 2.00183V6.00183H39.25V2.00183H35.4167ZM56.75 2.00183V6.00183H60.5833V2.00183H56.75ZM64.4167 2.00183V6.00183H68.25V2.00183H64.4167ZM72.0833 2.00183V6.00183H75.9167V2.00183H72.0833ZM79.75 2.00183V6.00183H83.5833V2.00183H79.75ZM94 12.4185H90V16.2518H94V12.4185ZM94 20.0852H90V23.9185H94V20.0852ZM94 27.7518H90V31.5852H94V27.7518ZM94 35.4185H90V39.2518H94V35.4185ZM94 56.7518H90V60.5852H94V56.7518ZM94 64.4185H90V68.2518H94V64.4185ZM94 72.0852H90V75.9185H94V72.0852ZM94 79.7518H90V83.5852H94V79.7518ZM83.5833 94.0018V90.0018H79.75V94.0018H83.5833ZM75.9167 94.0018V90.0018H72.0833V94.0018H75.9167ZM68.25 94.0018V90.0018H64.4167V94.0018H68.25ZM60.5833 94.0018V90.0018H56.75V94.0018H60.5833ZM39.25 94.0018V90.0018H35.4167V94.0018H39.25ZM31.5833 94.0018V90.0018H27.75V94.0018H31.5833ZM23.9167 94.0018V90.0018H20.0833V94.0018H23.9167ZM16.25 94.0018V90.0018H12.4167V94.0018H16.25ZM2 83.5852H6V79.7518H2V83.5852ZM2 75.9185H6V72.0852H2V75.9185ZM2 68.2518H6V64.4185H2V68.2518ZM2 60.5852H6V56.7518H2V60.5852ZM2 39.2518H6V35.4185H2V39.2518ZM2 31.5852H6V27.7518H2V31.5852ZM2 23.9185H6V20.0852H2V23.9185ZM2 16.2518H6V12.4185H2V16.2518Z" fill="#252F3E"/>
<rect x="88" y="44.0018" width="8" height="8" fill="#EE6823"/>
<rect x="44" y="88.0018" width="8" height="8" fill="#EE6823"/>
<rect x="44" y="0.00183105" width="8" height="8" fill="#EE6823"/>
<rect x="71" y="21.0018" width="4" height="4" fill="#FFA77A"/>
<rect x="71" y="71.0018" width="4" height="4" fill="#B64409"/>
<rect x="21" y="21.0018" width="4" height="4" fill="#FFA77A"/>
<rect x="21" y="71.0018" width="4" height="4" fill="#B64409"/>
<rect y="44.0018" width="8" height="8" fill="#EE6823"/>
<rect y="0.00183105" width="8" height="8" fill="#252F3E"/>
<rect y="88.0018" width="8" height="8" fill="#252F3E"/>
<rect x="88" y="0.00183105" width="8" height="8" fill="#252F3E"/>
<rect x="88" y="88.0018" width="8" height="8" fill="#252F3E"/>
</g>
<defs>
<clipPath id="clip0">
<rect width="96" height="96" fill="white"/>
</clipPath>
</defs>
</svg>
