<?xml version="1.0" standalone="no"?>
<!DOCTYPE svg PUBLIC "-//W3C//DTD SVG 20010904//EN"
 "http://www.w3.org/TR/2001/REC-SVG-20010904/DTD/svg10.dtd">
<svg version="1.0" xmlns="http://www.w3.org/2000/svg"
 width="500.000000pt" height="500.000000pt" viewBox="0 0 500.000000 500.000000"
 preserveAspectRatio="xMidYMid meet">

<g transform="translate(0.000000,500.000000) scale(0.100000,-0.100000)"
fill="#000000" stroke="none">
<path d="M1572 2689 c-24 -12 -55 -37 -70 -57 -24 -31 -27 -45 -27 -107 0 -62
3 -76 27 -107 41 -54 106 -82 178 -75 31 3 67 10 79 16 l21 12 -20 39 c-20 39
-21 39 -63 34 -60 -8 -99 24 -99 81 0 57 39 89 99 82 42 -4 44 -3 63 34 l20
38 -22 12 c-12 6 -49 14 -82 16 -49 3 -70 0 -104 -18z"/>
<path d="M1845 2696 c-65 -29 -105 -94 -105 -171 0 -55 14 -92 48 -129 57 -60
144 -73 206 -31 34 23 36 23 36 5 0 -18 7 -20 60 -20 l60 0 0 175 0 175 -60 0
c-47 0 -60 -3 -60 -15 0 -12 -6 -12 -37 5 -43 23 -104 25 -148 6z m156 -115
c44 -44 33 -108 -21 -131 -55 -23 -110 14 -110 73 0 80 75 113 131 58z"/>
<path d="M2326 2685 c-34 -23 -36 -23 -36 -5 0 18 -7 20 -60 20 l-60 0 0 -175
0 -175 60 0 60 0 0 103 c0 130 10 149 78 145 l47 -3 5 -70 c6 -85 31 -131 86
-162 46 -27 125 -30 167 -9 26 15 27 14 27 -14 0 -61 -98 -93 -153 -50 l-26
20 -45 -22 c-25 -12 -46 -25 -46 -29 0 -4 12 -21 26 -38 53 -63 199 -78 286
-29 58 33 78 72 85 172 l6 85 21 -31 c42 -63 152 -93 246 -68 85 23 151 121
136 202 -32 172 -286 216 -389 68 l-17 -24 0 52 0 52 -64 0 c-39 0 -66 -4 -68
-11 -3 -8 -14 -7 -35 5 -46 23 -110 20 -160 -8 -27 -16 -40 -19 -36 -10 6 16
-34 34 -76 34 -16 0 -45 -11 -65 -25z m359 -105 c26 -27 25 -84 -3 -112 -50
-50 -134 -15 -134 56 0 77 81 110 137 56z m396 1 c44 -44 33 -108 -21 -131
-55 -23 -110 14 -110 73 0 80 75 113 131 58z"/>
<path d="M3404 2490 c-28 -11 -54 -48 -54 -78 0 -30 43 -72 74 -72 38 0 55 10
71 41 20 38 19 54 -7 83 -27 29 -55 38 -84 26z"/>
<path d="M1901 2135 c-1 -47 1 -51 23 -53 30 -2 50 21 41 48 -4 13 -15 20 -30
20 -14 0 -25 7 -28 18 -3 9 -5 -6 -6 -33z m52 -7 c6 -19 -3 -38 -18 -38 -18 0
-28 17 -21 35 7 18 33 20 39 3z"/>
<path d="M2422 2130 c-1 -43 1 -51 9 -37 10 18 12 18 30 1 20 -18 27 -6 7 14
-8 8 -8 15 2 27 8 9 8 15 2 15 -6 0 -14 -4 -17 -10 -11 -18 -24 -10 -28 18 -2
15 -5 2 -5 -28z"/>
<path d="M2075 2130 c-8 -27 12 -52 39 -48 16 2 21 10 21 33 0 25 -4 31 -27
33 -19 2 -28 -2 -33 -18z m53 -13 c4 -21 -27 -35 -38 -17 -12 19 0 42 19 38 9
-2 17 -11 19 -21z"/>
<path d="M2249 2134 c-9 -11 -10 -20 -2 -32 15 -24 44 -27 59 -7 28 38 -27 75
-57 39z m46 -19 c0 -28 -29 -25 -33 3 -3 19 0 23 15 20 10 -2 18 -12 18 -23z"/>
<path d="M2593 2115 c0 -22 2 -30 4 -17 2 12 2 30 0 40 -3 9 -5 -1 -4 -23z"/>
<path d="M2711 2113 c1 -36 2 -37 8 -8 3 17 13 30 21 30 8 0 18 -13 22 -30 6
-29 6 -29 5 5 -2 30 -6 35 -29 38 -26 3 -28 1 -27 -35z"/>
<path d="M2875 2130 c-8 -26 13 -53 37 -47 10 3 18 1 18 -4 0 -5 -12 -9 -27
-9 -20 0 -24 -3 -16 -11 6 -6 20 -8 32 -4 17 5 21 14 21 51 0 42 -1 44 -29 44
-21 0 -32 -6 -36 -20z m50 -15 c0 -28 -29 -25 -33 3 -3 19 0 23 15 20 10 -2
18 -12 18 -23z"/>
<path d="M3055 2140 c-8 -14 3 -30 21 -30 8 0 14 -5 14 -11 0 -6 -9 -9 -20 -6
-11 3 -20 1 -20 -4 0 -13 38 -11 46 2 4 7 -4 20 -17 31 l-24 20 23 -5 c12 -3
22 -1 22 4 0 12 -37 11 -45 -1z"/>
</g>
</svg>
